<svg width="24" height="23" viewBox="0 0 24 23" fill="none" xmlns="http://www.w3.org/2000/svg">
<path d="M12 2.46875C6.486 2.46875 2 6.65475 2 11.8021V19.2688C2 20.2992 2.895 21.1355 4 21.1355H6C7.104 21.1355 8 20.2992 8 19.2688V16.4688C8 15.4384 7.104 14.6021 6 14.6021H4V11.8021C4 7.68422 7.589 4.33542 12 4.33542C16.411 4.33542 20 7.68422 20 11.8021V14.6021H18C16.896 14.6021 16 15.4384 16 16.4688V19.2688C16 20.2992 16.896 21.1355 18 21.1355H20C21.104 21.1355 22 20.2992 22 19.2688V11.8021C22 6.65475 17.514 2.46875 12 2.46875Z" fill="white"/>
<path d="M22 2L2 22" stroke="#FF0000" stroke-width="2"/>
</svg>
