<svg width="37" height="42" viewBox="0 0 37 42" fill="none" xmlns="http://www.w3.org/2000/svg">
<path fill-rule="evenodd" clip-rule="evenodd" d="M27.728 9.49177C21.595 8.71368 15.4047 8.71368 9.27169 9.49177C8.85672 9.54441 8.65688 10.0968 8.9195 10.4653L14.3416 18.0735C16.2839 20.799 17.3436 24.1985 17.3436 27.7041V32.7602L19.6561 34.6852V27.7041C19.6561 24.1985 20.7158 20.799 22.6581 18.0735L28.0802 10.4653C28.3428 10.0968 28.143 9.54441 27.728 9.49177ZM9.01483 6.88301C15.3185 6.08327 21.6811 6.08327 27.9849 6.88301C30.2155 7.16601 31.2897 10.1354 29.8781 12.1163L24.456 19.7245C22.8466 21.9827 21.9686 24.7994 21.9686 27.7041V37.2753C21.9686 37.7699 21.7236 38.2225 21.335 38.4461C20.9463 38.6697 20.4799 38.6262 20.1286 38.3337L15.5036 34.4837C15.2066 34.2365 15.0311 33.8434 15.0311 33.4253V27.7041C15.0311 24.7994 14.1531 21.9827 12.5437 19.7245L7.12163 12.1163C5.70994 10.1354 6.78415 7.16601 9.01483 6.88301Z" fill="black"/>
</svg>
