<svg width="24" height="27" viewBox="0 0 27 30" fill="none" xmlns="http://www.w3.org/2000/svg">
<path fill-rule="evenodd" clip-rule="evenodd" d="M6.23893 7.81315C6.23893 3.80333 9.48953 0.552734 13.4993 0.552734C17.5092 0.552734 20.7598 3.80333 20.7598 7.81315C20.7598 11.823 17.5092 15.0736 13.4993 15.0736C9.48953 15.0736 6.23893 11.823 6.23893 7.81315ZM13.4993 3.11523C10.9048 3.11523 8.80143 5.21856 8.80143 7.81315C8.80143 10.4077 10.9048 12.5111 13.4993 12.5111C16.0939 12.5111 18.1973 10.4077 18.1973 7.81315C18.1973 5.21856 16.0939 3.11523 13.4993 3.11523Z" fill="#B9BBBE"/>
<path fill-rule="evenodd" clip-rule="evenodd" d="M6.66602 20.1986C4.54317 20.1986 2.82227 21.9195 2.82227 24.0423V26.0723C2.82227 26.1032 2.84467 26.1296 2.87517 26.1345C9.91138 27.2833 17.0873 27.2833 24.1235 26.1345C24.154 26.1296 24.1764 26.1032 24.1764 26.0723V24.0423C24.1764 21.9195 22.4555 20.1986 20.3327 20.1986H19.7504C19.7053 20.1986 19.6606 20.2057 19.6178 20.2197L18.1392 20.7025C15.1243 21.6869 11.8744 21.6869 8.85949 20.7025L7.3809 20.2197C7.3381 20.2057 7.29336 20.1986 7.24833 20.1986H6.66602ZM0.259766 24.0423C0.259766 20.5042 3.12794 17.6361 6.66602 17.6361H7.24833C7.56351 17.6361 7.8767 17.6859 8.17631 17.7837L9.65489 18.2665C12.153 19.0822 14.8457 19.0822 17.3438 18.2665L18.8224 17.7837C19.122 17.6859 19.4352 17.6361 19.7504 17.6361H20.3327C23.8708 17.6361 26.7389 20.5042 26.7389 24.0423V26.0723C26.7389 27.3591 25.8064 28.4562 24.5364 28.6636C17.2268 29.857 9.77193 29.857 2.46227 28.6636C1.19232 28.4562 0.259766 27.3591 0.259766 26.0723V24.0423Z" fill="#B9BBBE"/>
</svg>
