<svg width="177" height="46" viewBox="0 0 177 46" fill="none" xmlns="http://www.w3.org/2000/svg">
<rect width="177" height="46" rx="15" fill="#8E9297"/>
<path fill-rule="evenodd" clip-rule="evenodd" d="M29.75 18.5C29.75 16.1528 31.6528 14.25 34 14.25C36.3472 14.25 38.25 16.1528 38.25 18.5C38.25 20.8472 36.3472 22.75 34 22.75C31.6528 22.75 29.75 20.8472 29.75 18.5ZM34 15.75C32.4812 15.75 31.25 16.9812 31.25 18.5C31.25 20.0188 32.4812 21.25 34 21.25C35.5188 21.25 36.75 20.0188 36.75 18.5C36.75 16.9812 35.5188 15.75 34 15.75Z" fill="black"/>
<path fill-rule="evenodd" clip-rule="evenodd" d="M26.25 28C26.25 25.9289 27.9289 24.25 30 24.25H30.3409C30.5254 24.25 30.7087 24.2792 30.8841 24.3364L31.7496 24.6191C33.2119 25.0965 34.7881 25.0965 36.2504 24.6191L37.1159 24.3364C37.2913 24.2792 37.4746 24.25 37.6591 24.25H38C40.0711 24.25 41.75 25.9289 41.75 28V29.1883C41.75 29.9415 41.2041 30.5837 40.4607 30.7051C36.1819 31.4037 31.8181 31.4037 27.5393 30.7051C26.7959 30.5837 26.25 29.9415 26.25 29.1883V28ZM30 25.75C28.7574 25.75 27.75 26.7574 27.75 28V29.1883C27.75 29.2064 27.7631 29.2218 27.781 29.2247C31.8997 29.8972 36.1003 29.8972 40.219 29.2247C40.2369 29.2218 40.25 29.2064 40.25 29.1883V28C40.25 26.7574 39.2426 25.75 38 25.75H37.6591C37.6328 25.75 37.6066 25.7542 37.5815 25.7623L36.716 26.045C34.9512 26.6212 33.0488 26.6212 31.284 26.045L30.4185 25.7623C30.3934 25.7542 30.3672 25.75 30.3409 25.75H30Z" fill="black"/>
<path d="M42.5 17.25C42.9142 17.25 43.25 17.5858 43.25 18V19.75H45C45.4142 19.75 45.75 20.0858 45.75 20.5C45.75 20.9142 45.4142 21.25 45 21.25H43.25V23C43.25 23.4142 42.9142 23.75 42.5 23.75C42.0858 23.75 41.75 23.4142 41.75 23V21.25H40C39.5858 21.25 39.25 20.9142 39.25 20.5C39.25 20.0858 39.5858 19.75 40 19.75H41.75V18C41.75 17.5858 42.0858 17.25 42.5 17.25Z" fill="black"/>
<path d="M77.28 31V17H78.76V31H77.28ZM83.3152 31V17H84.5352L94.1952 29.16H93.5552V17H95.0152V31H93.7952L84.1552 18.84H84.7952V31H83.3152ZM103.408 31L97.2084 17H98.8084L104.608 30.18H103.728L109.568 17H111.068L104.868 31H103.408ZM113.1 31V17H114.58V31H113.1ZM121.855 31V18.28H116.935V17H128.255V18.28H123.335V31H121.855ZM131.94 23.26H139.34V24.52H131.94V23.26ZM132.1 29.72H140.52V31H130.62V17H140.22V18.28H132.1V29.72Z" fill="black"/>
</svg>
