<svg width="177" height="45" viewBox="0 0 177 45" fill="none" xmlns="http://www.w3.org/2000/svg">
<rect width="177" height="45" rx="15" fill="#8E9297"/>
<path d="M77.28 29V15H78.76V27.72H86.6V29H77.28ZM90.3773 21.26H97.7773V22.52H90.3773V21.26ZM90.5373 27.72H98.9573V29H89.0573V15H98.6573V16.28H90.5373V27.72ZM100.196 29L106.596 15H108.056L114.456 29H112.896L107.016 15.86H107.616L101.736 29H100.196ZM102.716 25.26L103.156 24.06H111.296L111.736 25.26H102.716ZM120.03 29L113.83 15H115.43L121.23 28.18H120.35L126.19 15H127.69L121.49 29H120.03ZM131.041 21.26H138.441V22.52H131.041V21.26ZM131.201 27.72H139.621V29H129.721V15H139.321V16.28H131.201V27.72Z" fill="black"/>
<path d="M30.946 15.9597C31.2389 15.6668 31.7138 15.6668 32.0066 15.9597L34.4763 18.4294L36.946 15.9597C37.2389 15.6668 37.7138 15.6668 38.0067 15.9597C38.2996 16.2526 38.2996 16.7275 38.0067 17.0204L35.537 19.4901L38.0066 21.9597C38.2995 22.2526 38.2995 22.7275 38.0066 23.0204C37.7138 23.3133 37.2389 23.3133 36.946 23.0204L34.4763 20.5507L32.0067 23.0204C31.7138 23.3133 31.2389 23.3133 30.946 23.0204C30.6531 22.7275 30.6531 22.2526 30.946 21.9597L33.4157 19.4901L30.946 17.0204C30.6531 16.7275 30.6531 16.2526 30.946 15.9597Z" fill="black"/>
<path fill-rule="evenodd" clip-rule="evenodd" d="M29.7931 11.2588C32.8806 10.9137 36.072 10.9137 39.1596 11.2588C40.9859 11.4629 42.4608 12.9016 42.6757 14.7385C43.0449 17.8955 43.0449 21.0847 42.6757 24.2416C42.4608 26.0785 40.9859 27.5172 39.1596 27.7213C36.072 28.0664 32.8806 28.0664 29.7931 27.7213C27.9667 27.5172 26.4918 26.0785 26.2769 24.2416C25.9077 21.0847 25.9077 17.8955 26.2769 14.7385C26.4918 12.9016 27.9667 11.4629 29.7931 11.2588ZM38.9929 12.7495C36.0161 12.4168 32.9365 12.4168 29.9597 12.7495C28.8152 12.8774 27.8992 13.7807 27.7668 14.9128C27.4111 17.9539 27.4111 21.0262 27.7668 24.0673C27.8992 25.1994 28.8152 26.1027 29.9597 26.2306C32.9365 26.5633 36.0161 26.5633 38.9929 26.2306C40.1374 26.1027 41.0534 25.1994 41.1858 24.0673C41.5415 21.0262 41.5415 17.9539 41.1858 14.9128C41.0534 13.7807 40.1374 12.8774 38.9929 12.7495Z" fill="black"/>
</svg>
