<svg width="26" height="30" viewBox="0 0 26 30" fill="none" xmlns="http://www.w3.org/2000/svg">
<path d="M20.6267 13.8945H5.69339C4.51518 13.8945 3.56006 14.9894 3.56006 16.3399V24.8989C3.56006 26.2495 4.51518 27.3443 5.69339 27.3443H20.6267C21.8049 27.3443 22.7601 26.2495 22.7601 24.8989V16.3399C22.7601 14.9894 21.8049 13.8945 20.6267 13.8945Z" stroke="black" stroke-linecap="round" stroke-linejoin="round"/>
<path d="M7.82666 13.895V9.00416C7.82666 7.38275 8.38856 5.82775 9.38876 4.68124C10.389 3.53473 11.7455 2.89063 13.16 2.89062C14.5745 2.89062 15.931 3.53473 16.9312 4.68124C17.9314 5.82775 18.4933 7.38275 18.4933 9.00416V13.895" stroke="black" stroke-linecap="round" stroke-linejoin="round"/>
</svg>
