<svg width="26" height="26" viewBox="0 0 26 26" fill="none" xmlns="http://www.w3.org/2000/svg">
<path fill-rule="evenodd" clip-rule="evenodd" d="M16.2385 11.916C16.2385 13.7143 14.7977 15.166 12.9993 15.166C11.201 15.166 9.74935 13.7143 9.74935 11.916V5.41602C9.74935 3.61768 11.201 2.16602 12.9993 2.16602C14.7977 2.16602 16.2493 3.61768 16.2493 5.41602L16.2385 11.916ZM12.9993 17.441C15.9893 17.441 18.741 15.166 18.741 11.916H20.5827C20.5827 15.621 17.636 18.676 14.0827 19.196V22.7493H11.916V19.196C8.36268 18.6652 5.41602 15.6102 5.41602 11.916H7.25768C7.25768 15.166 10.0093 17.441 12.9993 17.441ZM12.9993 4.33268C12.1327 4.33268 11.916 5.05491 11.916 5.41602V11.916C11.916 12.2771 12.1327 12.9993 12.9993 12.9993C13.866 12.9993 14.0827 12.2771 14.0827 11.916V5.41602C14.0827 5.05491 13.866 4.33268 12.9993 4.33268Z" fill="black"/>
<path fill-rule="evenodd" clip-rule="evenodd" d="M16.2385 11.916C16.2385 13.7143 14.7977 15.166 12.9993 15.166C11.201 15.166 9.74935 13.7143 9.74935 11.916V5.41602C9.74935 3.61768 11.201 2.16602 12.9993 2.16602C14.7977 2.16602 16.2493 3.61768 16.2493 5.41602L16.2385 11.916ZM12.9993 17.441C15.9893 17.441 18.741 15.166 18.741 11.916H20.5827C20.5827 15.621 17.636 18.676 14.0827 19.196V23.8327H11.916V19.196C8.36268 18.6652 5.41602 15.6102 5.41602 11.916H7.25768C7.25768 15.166 10.0093 17.441 12.9993 17.441Z" fill="white"/>
</svg>
