<svg width="24" height="23" viewBox="0 0 24 23" fill="none" xmlns="http://www.w3.org/2000/svg">
<path fill-rule="evenodd" clip-rule="evenodd" d="M3.5643 8.4729C3.5643 5.25481 6.16204 2.65708 9.38013 2.65708C12.5982 2.65708 15.1959 5.25481 15.1959 8.4729C15.1959 11.691 12.5982 14.2887 9.38013 14.2887C6.16204 14.2887 3.5643 11.691 3.5643 8.4729ZM17.1346 14.2887H16.1136L15.7517 13.9398C17.0182 12.4664 17.7808 10.5537 17.7808 8.4729C17.7808 3.83317 14.0199 0.0722656 9.38013 0.0722656C4.74039 0.0722656 0.979492 3.83317 0.979492 8.4729C0.979492 13.1126 4.74039 16.8735 9.38013 16.8735C11.4609 16.8735 13.3737 16.111 14.847 14.8445L15.1959 15.2063V16.2273L21.658 22.6764L23.5837 20.7507L17.4648 14.6196L17.1346 14.2887Z" fill="#6F737A"/>
</svg>
