<svg width="24" height="24" viewBox="0 0 24 24" fill="none" xmlns="http://www.w3.org/2000/svg">
<path fill-rule="evenodd" clip-rule="evenodd" d="M12.1387 4.57553C13.1912 3.69843 14.7973 4.3322 14.9672 5.69169C15.4909 9.88142 15.4909 14.1201 14.9672 18.3098C14.7973 19.6693 13.1912 20.3031 12.1387 19.426L7.798 15.8087C7.75307 15.7712 7.69643 15.7507 7.63795 15.7507H4C3.0335 15.7507 2.25 14.9672 2.25 14.0007V10.0007C2.25 9.03425 3.0335 8.25075 4 8.25075H7.63795C7.69643 8.25075 7.75307 8.23024 7.798 8.1928L12.1387 4.57553ZM13.4788 5.87774C13.456 5.69519 13.2403 5.61009 13.099 5.72787L8.75827 9.34513C8.44377 9.60722 8.04734 9.75075 7.63795 9.75075H4C3.86193 9.75075 3.75 9.86267 3.75 10.0007V14.0007C3.75 14.1388 3.86193 14.2507 4 14.2507H7.63795C8.04734 14.2507 8.44377 14.3943 8.75827 14.6564L13.099 18.2736C13.2403 18.3914 13.456 18.3063 13.4788 18.1238C13.9871 14.0576 13.9871 9.94392 13.4788 5.87774Z" fill="#FA9600"/>
<path d="M17.2019 9.70265C17.4948 9.40975 17.9697 9.40975 18.2626 9.70265L19.5 10.9401L20.7374 9.70264C21.0303 9.40975 21.5052 9.40975 21.7981 9.70264C22.091 9.99554 22.091 10.4704 21.7981 10.7633L20.5607 12.0007L21.7981 13.2382C22.091 13.5311 22.091 14.0059 21.7981 14.2988C21.5052 14.5917 21.0303 14.5917 20.7374 14.2988L19.5 13.0614L18.2626 14.2988C17.9697 14.5917 17.4948 14.5917 17.2019 14.2988C16.909 14.0059 16.909 13.5311 17.2019 13.2382L18.4393 12.0007L17.2019 10.7633C16.909 10.4704 16.909 9.99554 17.2019 9.70265Z" fill="#FA9600"/>
</svg>
